# xmcd
#
# Track frame offsets:
# 151
# 15642
# 29924
# 46179
# 61876
# 77919
# 94540
# 113832
# 129455
# 143374
# 158002
# 173021
# 190009
# 204854
# 220519
# 238864
# 252248
# 270073
#
# Disc length: 3775 seconds
#
#
# Revision: 0
# Processed by: cddbd v1.5PL3 Copyright (c) Steve Scherf et al.
# Submitted via: FreeRIP 2.30 
#
DISCID=df0ebd12
DTITLE=咱的台灣歌-1
DYEAR=1900
DGENRE=
TTITLE0=淡水暮色
TTITLE1=離別的月臺票
TTITLE2=最後的火車站
TTITLE3=舊皮箱的流浪兒
TTITLE4=夜港邊
TTITLE5=黃昏的故鄉
TTITLE6=流浪的吉普賽姑娘
TTITLE7=人生旅途
TTITLE8=外樂的牧場
TTITLE9=碼頭惜別
TTITLE10=苦戀歌
TTITLE11=三邊無奈
TTITLE12=紅燈青燈
TTITLE13=男性本事漂泊的心情
TTITLE14=夜夜為你來失眠
TTITLE15=內山兄哥
TTITLE16=新娘悲歌
TTITLE17=碎心戀
EXTD=
EXTT0=
EXTT1=
EXTT2=
EXTT3=
EXTT4=
EXTT5=
EXTT6=
EXTT7=
EXTT8=
EXTT9=
EXTT10=
EXTT11=
EXTT12=
EXTT13=
EXTT14=
EXTT15=
EXTT16=
EXTT17=
PLAYORDER=
